{
    "accessors": [
        {
            "bufferView": 0,
            "componentType": 5126,
            "count": 50,
            "min": [
                -0.29300832748413086,
                -0.025892972946166992,
                0.428131103515625
            ],
            "max": [
                0.2930082678794861,
                0.004877328872680664,
                0.43523406982421875
            ],
            "type": "VEC3",
            "name": "x0_SCREEN_FCU_vertices#0_POSITION"
        },
        {
            "bufferView": 0,
            "byteOffset": 12,
            "componentType": 5120,
            "count": 50,
            "type": "VEC4",
            "name": "x0_SCREEN_FCU_vertices#0_TANGENT"
        },
        {
            "bufferView": 0,
            "byteOffset": 16,
            "componentType": 5120,
            "count": 50,
            "type": "VEC4",
            "name": "x0_SCREEN_FCU_vertices#0_NORMAL"
        },
        {
            "bufferView": 0,
            "byteOffset": 20,
            "componentType": 5122,
            "count": 50,
            "type": "VEC2",
            "name": "x0_SCREEN_FCU_vertices#0_TEXCOORD_0"
        },
        {
            "bufferView": 0,
            "byteOffset": 24,
            "componentType": 5122,
            "count": 50,
            "type": "VEC2",
            "name": "x0_SCREEN_FCU_vertices#0_TEXCOORD_1"
        },
        {
            "bufferView": 0,
            "byteOffset": 28,
            "componentType": 5123,
            "count": 50,
            "type": "VEC4",
            "name": "x0_SCREEN_FCU_vertices#0_COLOR_0"
        },
        {
            "bufferView": 1,
            "componentType": 5123,
            "count": 132,
            "type": "SCALAR",
            "name": "x0_SCREEN_FCU_indices#0"
        }
    ],
    "asset": {
        "generator": "Khronos glTF Blender I/O v3.3.36 and Asobo Studio MSFS Blender I/O v1.3.0",
        "version": "2.0",
        "extensions": {
            "ASOBO_asset_optimized": {
                "BoundingBoxMax": [
                    0.2930082678794861,
                    0.004877328872680664,
                    0.43523406982421875
                ],
                "BoundingBoxMin": [
                    -0.29300832748413086,
                    -0.025892972946166992,
                    0.428131103515625
                ],
                "MajorVersion": 4,
                "MinorVersion": 4,
                "UseCheckerboardMaterialForMissingTextures": true,
                "UseOnlyFilenameForImageURI": true
            },
            "ASOBO_normal_map_convention": {
                "tangent_space_convention": "DirectX"
            }
        }
    },
    "bufferViews": [
        {
            "buffer": 0,
            "byteLength": 1800,
            "byteStride": 36,
            "target": 34962,
            "name": "BufferViewVertexND"
        },
        {
            "buffer": 0,
            "byteLength": 264,
            "byteOffset": 1800,
            "target": 34963,
            "name": "BufferViewIndex"
        }
    ],
    "materials": [
        {
            "name": "$FCU2"
        }
    ],
    "meshes": [
        {
            "primitives": [
                {
                    "attributes": {
                        "COLOR_0": 5,
                        "NORMAL": 2,
                        "POSITION": 0,
                        "TANGENT": 1,
                        "TEXCOORD_0": 3,
                        "TEXCOORD_1": 4
                    },
                    "indices": 6,
                    "material": 0,
                    "mode": 4,
                    "extras": {
                        "ASOBO_primitive": {
                            "PrimitiveCount": 44,
                            "VertexType": "VTX",
                            "VertexVersion": 2
                        }
                    }
                }
            ],
            "name": "x0_SCREEN_FCU"
        }
    ],
    "nodes": [
        {
            "translation": [
                0,
                1.927182912826538,
                11.312582969665527
            ],
            "mesh": 0,
            "name": "SCREEN_FCU"
        }
    ],
    "scene": 0,
    "scenes": [
        {
            "nodes": [
                0
            ],
            "name": "Scene"
        }
    ],
    "extensionsUsed": [
        "ASOBO_normal_map_convention",
        "ASOBO_asset_optimized"
    ],
    "buffers": [
        {
            "byteLength": 2064,
            "uri": "fcu.bin"
        }
    ]
}
